<?xml version="1.0" encoding="UTF-8"?>
<svg width="488px" height="253px" viewBox="0 0 488 253" version="1.1" xmlns="http://www.w3.org/2000/svg" xmlns:xlink="http://www.w3.org/1999/xlink">
    <!-- Generator: Sketch 57.1 (83088) - https://sketch.com -->
    <title>Artboard</title>
    <desc>Created with Sketch.</desc>
    <g id="Page-1" stroke="none" stroke-width="1" fill="none" fill-rule="evenodd">
        <g id="Artboard" transform="translate(-86.000000, -85.000000)" fill-rule="nonzero">
            <g id="Group" transform="translate(86.000000, 85.000000)">
                <path d="M34.7301136,50.4119318 L43.7784091,50.4119318 C46.7945227,50.4119318 49.37203,50.0349233 51.5110085,49.2808949 C53.649987,48.5268665 55.2965141,47.3189004 56.4506392,45.6569602 C57.6047643,43.9950201 58.1818182,41.8252975 58.1818182,39.1477273 C58.1818182,36.4393804 57.6047643,34.2311875 56.4506392,32.5230824 C55.2965141,30.8149773 53.649987,29.5531528 51.5110085,28.737571 C49.37203,27.9219893 46.7945227,27.5142045 43.7784091,27.5142045 L34.7301136,27.5142045 L34.7301136,50.4119318 L34.7301136,50.4119318 Z M34.7301136,70.3551136 L34.7301136,101.5625 L9.0625,101.5625 L9.0625,7.01704545 L49.8721591,7.01704545 C56.8892396,7.01704545 63.029093,8.29425806 68.2919034,10.8487216 C73.5547138,13.4031851 77.6479494,17.0809419 80.571733,21.8821023 C83.4955165,26.6832626 84.9573864,32.4384134 84.9573864,39.1477273 C84.9573864,45.9185945 83.4570463,51.6275809 80.456321,56.274858 C77.4555958,60.922135 73.2546435,64.4306226 67.8533381,66.8004261 C62.4520327,69.1702297 56.1506042,70.3551136 48.9488636,70.3551136 L34.7301136,70.3551136 L34.7301136,70.3551136 Z M64.4602273,58.1676136 L88.0965909,101.5625 L60.2130682,101.5625 L37.1306818,58.1676136 L64.4602273,58.1676136 Z M201.661932,102.485795 C196.614558,102.485795 191.975045,101.162419 187.743253,98.515625 C183.511461,95.8688315 180.126078,91.8525364 177.587003,86.4666193 C175.047928,81.0807022 173.778409,74.2945485 173.778409,66.1079545 C173.778409,57.5520406 175.10948,50.5966177 177.771662,45.2414773 C180.433844,39.8863369 183.880779,35.9623704 188.112571,33.4694602 C192.344363,30.97655 196.799219,29.7301136 201.477273,29.7301136 C204.985813,29.7301136 208.063434,30.3379437 210.710227,31.5536222 C213.357021,32.7693006 215.572908,34.3850515 217.357955,36.4009233 C219.143001,38.4167951 220.497154,40.624988 221.420455,43.0255682 L221.789773,43.0255682 L221.789773,7.01704545 L247.272727,7.01704545 L247.272727,101.5625 L221.974432,101.5625 L221.974432,89.9289773 L221.420455,89.9289773 C220.435601,92.3295575 219.02759,94.4761979 217.196378,96.3689631 C215.365166,98.2617282 213.149279,99.7543743 210.548651,100.846946 C207.948022,101.939518 204.985812,102.485795 201.661932,102.485795 Z M211.079545,82.9119318 C213.418572,82.9119318 215.42672,82.2271612 217.104048,80.8575994 C218.781377,79.4880377 220.073977,77.5491366 220.981889,75.0408381 C221.889801,72.5325395 222.34375,69.5549415 222.34375,66.1079545 C222.34375,62.5994143 221.889801,59.59104 220.981889,57.0827415 C220.073977,54.574443 218.781377,52.65093 217.104048,51.3121449 C215.42672,49.9733598 213.418572,49.3039773 211.079545,49.3039773 C208.740519,49.3039773 206.747759,49.9733598 205.101207,51.3121449 C203.454656,52.65093 202.192831,54.574443 201.315696,57.0827415 C200.438561,59.59104 200,62.5994143 200,66.1079545 C200,69.6164948 200.438561,72.6248691 201.315696,75.1331676 C202.192831,77.6414661 203.454656,79.5649791 205.101207,80.9037642 C206.747759,82.2425493 208.740519,82.9119318 211.079545,82.9119318 Z M285.3125,61.6761364 L285.3125,101.5625 L259.829545,101.5625 L259.829545,30.6534091 L284.019886,30.6534091 L284.019886,44.1335227 L284.758523,44.1335227 C286.297356,39.640129 289.013356,36.1162533 292.906605,33.5617898 C296.799854,31.0073262 301.347038,29.7301136 306.548295,29.7301136 C311.564893,29.7301136 315.92742,30.8765274 319.636009,33.1693892 C323.344597,35.462251 326.222173,38.6091183 328.268821,42.6100852 C330.31547,46.6110522 331.32339,51.181319 331.293952,56.3210227 L331.293952,101.5625 L305.809659,101.5625 L305.809659,61.6761364 C305.840436,58.1675961 304.95562,55.4131255 303.155185,53.412642 C301.35475,51.4121586 298.854183,50.4119318 295.653409,50.4119318 C293.560596,50.4119318 291.737105,50.8658809 290.182884,51.7737926 C288.628662,52.6817044 287.436084,53.9743051 286.605114,55.6516335 C285.774144,57.328962 285.343277,59.3371095 285.3125,61.6761364 Z M343.849432,101.5625 L343.849432,30.6534091 L369.332386,30.6534091 L369.332386,101.5625 L343.849432,101.5625 Z M343.849432,101.5625 L343.849432,30.6534091 L369.332386,30.6534091 L369.332386,101.5625 L343.849432,101.5625 Z M356.637074,23.2670455 C353.15931,23.2670455 350.189406,22.1283258 347.727273,19.8508523 C345.265139,17.5733788 344.034091,14.8342963 344.034091,11.6335227 C344.034091,8.43274915 345.265139,5.69366669 347.727273,3.41619318 C350.189406,1.13871967 353.143922,0 356.590909,0 C360.068673,0 363.030883,1.13871967 365.477628,3.41619318 C367.924373,5.69366669 369.147727,8.43274915 369.147727,11.6335227 C369.147727,14.8342963 367.924373,17.5733788 365.477628,19.8508523 C363.030883,22.1283258 360.084061,23.2670455 356.637074,23.2670455 Z M405.15625,84.7585227 L405.340909,54.4744318 L408.664773,54.4744318 L425.838068,30.6534091 L454.460227,30.6534091 L425.653409,67.7698864 L418.451705,67.7698864 L405.15625,84.7585227 Z M382.258523,101.5625 L382.258523,7.01704545 L407.741477,7.01704545 L407.741477,101.5625 L382.258523,101.5625 Z M426.022727,101.5625 L409.772727,73.4943182 L426.392045,55.3977273 L455.198864,101.5625 L426.022727,101.5625 Z M474.957386,103.039773 C471.387293,103.039773 468.332754,101.785642 465.793679,99.2773438 C463.254604,96.7690452 462.000473,93.7145066 462.03125,90.1136364 C462.000473,86.6050961 463.254604,83.6044159 465.793679,81.1115057 C468.332754,78.6185955 471.387293,77.3721591 474.957386,77.3721591 C478.34282,77.3721591 481.335806,78.6185955 483.936435,81.1115057 C486.537063,83.6044159 487.852746,86.6050961 487.883523,90.1136364 C487.852746,92.5142165 487.229528,94.6916332 486.013849,96.6459517 C484.798171,98.6002702 483.22089,100.154469 481.28196,101.308594 C479.34303,102.462719 477.23486,103.039773 474.957386,103.039773 Z" id="Rodnik." fill="#000000"></path>
                <path d="M46.71875,154.653409 L46.71875,173.119318 L0,173.119318 L0,154.653409 L46.71875,154.653409 Z M9.04829545,137.664773 L34.53125,137.664773 L34.53125,202.757102 C34.53125,203.741956 34.7005191,204.565219 35.0390625,205.226918 C35.3776059,205.888616 35.9008014,206.381035 36.6086648,206.70419 C37.3165282,207.027345 38.2244263,207.18892 39.3323864,207.18892 C40.1018031,207.18892 41.0020072,207.096592 42.0330256,206.911932 C43.064044,206.727272 43.8257551,206.573391 44.3181818,206.450284 L48.0113636,224.362216 C46.8726269,224.700759 45.2491819,225.116238 43.1409801,225.608665 C41.0327783,226.101091 38.5322114,226.424242 35.6392045,226.578125 C29.7916374,226.885892 24.8828324,226.278062 20.912642,224.754616 C16.9424517,223.231171 13.9571596,220.822933 11.9566761,217.52983 C9.95619265,214.236726 8.98674212,210.112714 9.04829545,205.15767 L9.04829545,137.664773 Z M90.4829545,226.855114 C82.7887873,226.855114 76.2026789,225.323997 70.7244318,222.261719 C65.2461847,219.19944 61.0452324,214.921547 58.1214489,209.427912 C55.1976653,203.934277 53.7357955,197.555908 53.7357955,190.292614 C53.7357955,183.02932 55.1976653,176.650951 58.1214489,171.157315 C61.0452324,165.66368 65.2461847,161.385787 70.7244318,158.323509 C76.2026789,155.26123 82.7887873,153.730114 90.4829545,153.730114 C98.1771218,153.730114 104.76323,155.26123 110.241477,158.323509 C115.719724,161.385787 119.920677,165.66368 122.84446,171.157315 C125.768244,176.650951 127.230114,183.02932 127.230114,190.292614 C127.230114,197.555908 125.768244,203.934277 122.84446,209.427912 C119.920677,214.921547 115.719724,219.19944 110.241477,222.261719 C104.76323,225.323997 98.1771218,226.855114 90.4829545,226.855114 Z M90.6676136,208.019886 C92.8219805,208.019886 94.683941,207.296645 96.2535511,205.850142 C97.8231613,204.403639 99.0388214,202.341633 99.9005682,199.664063 C100.762315,196.986492 101.193182,193.801155 101.193182,190.107955 C101.193182,186.383978 100.762315,183.190946 99.9005682,180.528764 C99.0388214,177.866582 97.8231613,175.81227 96.2535511,174.365767 C94.683941,172.919264 92.8219805,172.196023 90.6676136,172.196023 C88.3901401,172.196023 86.435851,172.919264 84.8046875,174.365767 C83.173524,175.81227 81.9270876,177.866582 81.0653409,180.528764 C80.2035942,183.190946 79.7727273,186.383978 79.7727273,190.107955 C79.7727273,193.801155 80.2035942,196.986492 81.0653409,199.664063 C81.9270876,202.341633 83.173524,204.403639 84.8046875,205.850142 C86.435851,207.296645 88.3901401,208.019886 90.6676136,208.019886 Z M163.238636,226.485795 C158.191263,226.485795 153.551749,225.162419 149.319957,222.515625 C145.088165,219.868831 141.702783,215.852536 139.163707,210.466619 C136.624632,205.080702 135.355114,198.294549 135.355114,190.107955 C135.355114,181.552041 136.686185,174.596618 139.348366,169.241477 C142.010548,163.886337 145.457484,159.96237 149.689276,157.46946 C153.921068,154.97655 158.375924,153.730114 163.053977,153.730114 C166.562518,153.730114 169.640138,154.337944 172.286932,155.553622 C174.933725,156.769301 177.149612,158.385051 178.934659,160.400923 C180.719706,162.416795 182.073859,164.624988 182.997159,167.025568 L183.366477,167.025568 L183.366477,131.017045 L208.849432,131.017045 L208.849432,225.5625 L183.551136,225.5625 L183.551136,213.928977 L182.997159,213.928977 C182.012306,216.329557 180.604294,218.476198 178.773082,220.368963 C176.941871,222.261728 174.725984,223.754374 172.125355,224.846946 C169.524727,225.939518 166.562517,226.485795 163.238636,226.485795 Z M172.65625,206.911932 C174.995277,206.911932 177.003424,206.227161 178.680753,204.857599 C180.358081,203.488038 181.650682,201.549137 182.558594,199.040838 C183.466505,196.53254 183.920455,193.554941 183.920455,190.107955 C183.920455,186.599414 183.466505,183.59104 182.558594,181.082741 C181.650682,178.574443 180.358081,176.65093 178.680753,175.312145 C177.003424,173.97336 174.995277,173.303977 172.65625,173.303977 C170.317223,173.303977 168.324464,173.97336 166.677912,175.312145 C165.03136,176.65093 163.769536,178.574443 162.892401,181.082741 C162.015266,183.59104 161.576705,186.599414 161.576705,190.107955 C161.576705,193.616495 162.015266,196.624869 162.892401,199.133168 C163.769536,201.641466 165.03136,203.564979 166.677912,204.903764 C168.324464,206.242549 170.317223,206.911932 172.65625,206.911932 Z M241.164773,226.670455 C236.640602,226.670455 232.647389,225.924132 229.185014,224.431463 C225.722639,222.938795 223.006639,220.669049 221.036932,217.622159 C219.067225,214.575269 218.082386,210.697467 218.082386,205.988636 C218.082386,202.110776 218.744075,198.79464 220.067472,196.040128 C221.390868,193.285616 223.237441,191.031259 225.607244,189.276989 C227.977048,187.522719 230.739212,186.183953 233.893821,185.260653 C237.04843,184.337353 240.456895,183.737217 244.119318,183.460227 C248.089508,183.152461 251.28254,182.775452 253.698509,182.32919 C256.114477,181.882929 257.861027,181.252016 258.93821,180.436435 C260.015394,179.620853 260.553977,178.535992 260.553977,177.181818 L260.553977,176.997159 C260.553977,175.150559 259.846125,173.734853 258.430398,172.75 C257.014671,171.765147 255.198875,171.272727 252.982955,171.272727 C250.551598,171.272727 248.574226,171.803617 247.050781,172.865412 C245.527336,173.927207 244.611744,175.550652 244.303977,177.735795 L220.852273,177.735795 C221.160039,173.427062 222.537275,169.449237 224.98402,165.802202 C227.430765,162.155166 231.008499,159.231427 235.71733,157.030895 C240.42616,154.830363 246.304416,153.730114 253.352273,153.730114 C258.430423,153.730114 262.985302,154.322556 267.017045,155.507457 C271.048789,156.692359 274.480336,158.338886 277.31179,160.447088 C280.143243,162.55529 282.305272,165.017386 283.79794,167.833452 C285.290609,170.649517 286.036932,173.704056 286.036932,176.997159 L286.036932,225.5625 L262.215909,225.5625 L262.215909,215.590909 L261.661932,215.590909 C260.246205,218.237703 258.530431,220.376649 256.51456,222.007813 C254.498688,223.638976 252.20586,224.82386 249.636009,225.5625 C247.066157,226.30114 244.24244,226.670455 241.164773,226.670455 Z M249.474432,210.605114 C251.413362,210.605114 253.236852,210.205023 254.944957,209.40483 C256.653063,208.604636 258.045686,207.450528 259.122869,205.942472 C260.200053,204.434415 260.738636,202.60323 260.738636,200.448864 L260.738636,194.539773 C260.06155,194.816763 259.346003,195.078361 258.591974,195.324574 C257.837946,195.570787 257.037765,195.801609 256.191406,196.017045 C255.345048,196.232482 254.452538,196.432527 253.513849,196.617188 C252.575161,196.801848 251.598016,196.971117 250.582386,197.125 C248.61268,197.432767 247.004623,197.93288 245.758168,198.625355 C244.511713,199.31783 243.588426,200.164176 242.988281,201.164418 C242.388136,202.164659 242.088068,203.280297 242.088068,204.511364 C242.088068,206.48107 242.780533,207.989105 244.165483,209.035511 C245.550433,210.081918 247.320065,210.605114 249.474432,210.605114 Z M311.150568,252.06108 C308.226785,252.06108 305.441538,251.837952 302.794744,251.39169 C300.147951,250.945429 297.824347,250.337599 295.823864,249.568182 L301.363636,231.471591 C304.502857,232.579551 307.180387,233.064276 309.396307,232.925781 C311.612227,232.787286 313.243366,231.810142 314.289773,229.994318 L314.84375,228.701705 L289.914773,154.653409 L316.505682,154.653409 L327.954545,203.772727 L328.693182,203.772727 L340.326705,154.653409 L367.102273,154.653409 L341.25,231.471591 C339.95738,235.349451 338.087725,238.842551 335.64098,241.950994 C333.194235,245.059438 329.985815,247.521534 326.015625,249.337358 C322.045435,251.153181 317.090465,252.06108 311.150568,252.06108 Z" id="today" fill="#000000"></path>
                <g id="Combined-Shape-2" transform="translate(92.159091, 29.730114)" fill="#67BFFF">
                    <path d="M36.5,0 C56.6583934,0 73,16.3416066 73,36.5 C73,56.6583934 56.6583934,73 36.5,73 C16.3416066,73 0,56.6583934 0,36.5 C0,16.3416066 16.3416066,0 36.5,0 Z M36.5,20 C27.3873016,20 20,27.3873016 20,36.5 C20,45.6126984 27.3873016,53 36.5,53 C45.6126984,53 53,45.6126984 53,36.5 C53,27.3873016 45.6126984,20 36.5,20 Z" id="Combined-Shape"></path>
                </g>
            </g>
        </g>
    </g>
</svg>