<?xml version="1.0" encoding="UTF-8"?>
<svg width="3224px" height="478px" viewBox="0 0 3224 478" version="1.1" xmlns="http://www.w3.org/2000/svg" xmlns:xlink="http://www.w3.org/1999/xlink">
    <!-- Generator: Sketch 57.1 (83088) - https://sketch.com -->
    <title>Group</title>
    <desc>Created with Sketch.</desc>
    <g id="Page-1" stroke="none" stroke-width="1" fill="none" fill-rule="evenodd">
        <g id="Artboard" transform="translate(-186.000000, -1128.000000)" fill-rule="nonzero">
            <g id="Group" transform="translate(186.768000, 1128.584000)">
                <path d="M224.025727,238.435841 C230.116183,240.180042 235.824927,242.706758 241.152,246.016 C252.416056,253.013368 261.802629,263.679928 269.312,278.016 L294.912,324.096 C300.373361,333.994716 302.933335,343.637286 302.592,353.024 C302.250665,362.410714 298.581368,370.090637 291.584,376.064 C284.586632,382.037363 274.432067,385.024 261.12,385.024 C247.807933,385.024 236.970708,382.293361 228.608,376.832 C220.245292,371.370639 212.821366,362.837391 206.336,351.232 L159.744,265.728 C155.64798,258.218629 150.442698,253.013348 144.128,250.112 C137.813302,247.210652 130.560041,245.76 122.368,245.76 L94.208,245.76 L94.208,337.408 C94.208,352.426742 90.2827059,364.117292 82.432,372.48 C74.5812941,380.842708 62.8054118,385.024 47.104,385.024 C32.0852582,385.024 20.480041,380.842708 12.288,372.48 C4.09595904,364.117292 0,352.426742 0,337.408 L0,67.072 C0,51.7119232 4.18129152,39.936041 12.544,31.744 C20.9067085,23.551959 32.5972582,19.456 47.616,19.456 L173.568,19.456 C214.528205,19.456 246.186555,29.4399002 268.544,49.408 C290.901445,69.3760998 302.08,97.1091558 302.08,132.608 C302.08,155.477448 297.045384,175.359916 286.976,192.256 C276.906616,209.152084 262.400095,222.122621 243.456,231.168 C237.420899,234.049625 230.944149,236.472237 224.025727,238.435841 L224.025727,238.435841 Z M97.208,179.2 L159.672,179.2 C177.762757,179.2 191.586619,175.616036 201.144,168.448 C210.701381,161.279964 215.48,150.186742 215.48,135.168 C215.48,120.831928 210.701381,109.994703 201.144,102.656 C191.586619,95.3172966 177.762757,91.648 159.672,91.648 L97.208,91.648 L97.208,179.2 Z M824.9395,159.078114 L824.9395,60.928 C824.9395,45.9092582 828.864794,34.4747059 836.7155,26.624 C844.566206,18.7732941 855.830093,14.848 870.5075,14.848 C884.843572,14.848 896.022127,18.7732941 904.0435,26.624 C912.064873,34.4747059 916.0755,45.9092582 916.0755,60.928 L916.0755,338.944 C916.0755,353.962742 912.235538,365.397294 904.5555,373.248 C896.875462,381.098706 885.696907,385.024 871.0195,385.024 C856.683428,385.024 845.590206,381.098706 837.7395,373.248 C831.360428,366.868928 827.573044,358.123679 826.377286,347.012071 C820.837707,356.882766 812.593149,365.201363 801.6435,371.968 C786.454091,381.354714 769.131597,386.048 749.6755,386.048 C728.171392,386.048 709.142249,380.757386 692.5875,370.176 C676.032751,359.594614 663.062214,344.405432 653.6755,324.608 C644.288786,304.810568 639.5955,281.429468 639.5955,254.464 C639.5955,226.815862 644.288786,203.264097 653.6755,183.808 C663.062214,164.351903 676.032751,149.333386 692.5875,138.752 C709.142249,128.170614 728.171392,122.88 749.6755,122.88 C768.448927,122.88 785.344758,127.317289 800.3635,136.192 C811.071443,142.519421 819.263407,150.148084 824.9395,159.078114 L824.9395,159.078114 Z M778.8595,318.976 C788.075546,318.976 796.267464,316.672023 803.4355,312.064 C810.603536,307.455977 816.150147,300.458714 820.0755,291.072 C824.000853,281.685286 825.9635,269.482742 825.9635,254.464 C825.9635,231.594552 821.526211,215.125384 812.6515,205.056 C803.776789,194.986616 792.512902,189.952 778.8595,189.952 C769.643454,189.952 761.451536,192.170644 754.2835,196.608 C747.115464,201.045356 741.48352,207.957286 737.3875,217.344 C733.29148,226.730714 731.2435,239.103923 731.2435,254.464 C731.2435,276.992113 735.680789,293.375949 744.5555,303.616 C753.430211,313.856051 764.864763,318.976 778.8595,318.976 Z M1057.37092,163.280558 C1065.03596,151.689527 1074.92876,142.489404 1087.0495,135.68 C1102.23891,127.146624 1119.5614,122.88 1139.0175,122.88 C1159.15627,122.88 1175.71077,126.719962 1188.6815,134.4 C1201.65223,142.080038 1211.38013,154.026586 1217.8655,170.24 C1224.35087,186.453414 1227.5935,206.847877 1227.5935,231.424 L1227.5935,338.944 C1227.5935,353.962742 1223.66821,365.397294 1215.8175,373.248 C1207.96679,381.098706 1196.70291,385.024 1182.0255,385.024 C1167.34809,385.024 1156.08421,381.098706 1148.2335,373.248 C1140.38279,365.397294 1136.4575,353.962742 1136.4575,338.944 L1136.4575,235.008 C1136.4575,219.647923 1133.81219,208.725366 1128.5215,202.24 C1123.23081,195.754634 1115.46555,192.512 1105.2255,192.512 C1091.5721,192.512 1080.64954,196.863956 1072.4575,205.568 C1064.26546,214.272044 1060.1695,225.962593 1060.1695,240.64 L1060.1695,338.944 C1060.1695,369.664154 1044.80965,385.024 1014.0895,385.024 C999.753428,385.024 988.660206,381.098706 980.8095,373.248 C972.958794,365.397294 969.0335,353.962742 969.0335,338.944 L969.0335,169.472 C969.0335,154.794593 972.873462,143.530706 980.5535,135.68 C988.233538,127.829294 999.241428,123.904 1013.5775,123.904 C1027.91357,123.904 1038.83613,127.829294 1046.3455,135.68 C1052.76197,142.388132 1056.43709,151.588248 1057.37092,163.280558 L1057.37092,163.280558 Z M1324.39844,385.024 C1310.06237,385.024 1298.96914,380.757376 1291.11844,372.224 C1283.26773,363.690624 1279.34244,351.402747 1279.34244,335.36 L1279.34244,173.568 C1279.34244,157.525253 1283.26773,145.237376 1291.11844,136.704 C1298.96914,128.170624 1310.06237,123.904 1324.39844,123.904 C1339.07584,123.904 1350.42506,128.170624 1358.44644,136.704 C1366.46781,145.237376 1370.47844,157.525253 1370.47844,173.568 L1370.47844,335.36 C1370.47844,351.402747 1366.55314,363.690624 1358.70244,372.224 C1350.85173,380.757376 1339.41718,385.024 1324.39844,385.024 Z M1324.39844,87.552 C1308.35569,87.552 1295.98248,83.7973709 1287.27844,76.288 C1278.57439,68.7786291 1274.22244,57.8560717 1274.22244,43.52 C1274.22244,29.5252634 1278.57439,18.7733709 1287.27844,11.264 C1295.98248,3.75462912 1308.35569,8.52651283e-14 1324.39844,8.52651283e-14 C1341.12385,8.52651283e-14 1353.75306,3.75462912 1362.28644,11.264 C1370.81981,18.7733709 1375.08644,29.5252634 1375.08644,43.52 C1375.08644,57.8560717 1370.81981,68.7786291 1362.28644,76.288 C1353.75306,83.7973709 1341.12385,87.552 1324.39844,87.552 Z M1605.79631,248.295754 L1668.55488,327.168 C1676.06425,336.725381 1679.13622,346.026621 1677.77087,355.072 C1676.40553,364.117379 1672.05358,371.370639 1664.71487,376.832 C1657.37617,382.293361 1648.07493,385.024 1636.81087,385.024 C1623.15747,385.024 1612.23492,382.549358 1604.04288,377.6 C1595.85083,372.650642 1587.65892,364.885386 1579.46688,354.304 L1515.46688,275.456 L1514.44287,275.456 L1514.44287,338.944 C1514.44287,369.664154 1499.08303,385.024 1468.36288,385.024 C1454.0268,385.024 1442.93358,381.098706 1435.08288,373.248 C1427.23217,365.397294 1423.30687,353.962742 1423.30687,338.944 L1423.30687,60.928 C1423.30687,45.9092582 1427.23217,34.4747059 1435.08288,26.624 C1442.93358,18.7732941 1454.0268,14.848 1468.36288,14.848 C1483.04028,14.848 1494.3895,18.7732941 1502.41088,26.624 C1510.43225,34.4747059 1514.44287,45.9092582 1514.44287,60.928 L1514.44287,229.888 L1515.46688,229.888 L1577.93088,154.112 C1586.46425,143.871949 1594.40017,136.277358 1601.73888,131.328 C1609.07758,126.378642 1619.06148,123.904 1631.69088,123.904 C1644.32027,123.904 1654.04817,126.975969 1660.87487,133.12 C1667.70158,139.264031 1671.28554,146.943954 1671.62687,156.16 C1671.96821,165.376046 1668.21358,174.591954 1660.36288,183.808 L1605.79631,248.295754 L1605.79631,248.295754 Z M1770.47356,383.488 C1755.11349,383.488 1742.91094,378.880046 1733.86556,369.664 C1724.82018,360.447954 1720.29756,348.330742 1720.29756,333.312 C1720.29756,318.634593 1724.82018,306.773379 1733.86556,297.728 C1742.91094,288.682621 1755.11349,284.16 1770.47356,284.16 C1786.51631,284.16 1798.88952,288.682621 1807.59356,297.728 C1816.29761,306.773379 1820.64956,318.634593 1820.64956,333.312 C1820.64956,348.330742 1816.29761,360.447954 1807.59356,369.664 C1798.88952,378.880046 1786.51631,383.488 1770.47356,383.488 Z M1983.27425,386.048 C1957.67412,386.048 1936.597,382.122706 1920.04225,374.272 C1903.4875,366.421294 1891.11429,354.560079 1882.92225,338.688 C1874.73021,322.815921 1870.63425,302.933453 1870.63425,279.04 L1870.63425,195.584 L1853.22625,195.584 C1842.30353,195.584 1833.85561,192.682696 1827.88225,186.88 C1821.90889,181.077304 1818.92225,172.714721 1818.92225,161.792 C1818.92225,150.869279 1821.90889,142.592028 1827.88225,136.96 C1833.85561,131.327972 1842.30353,128.512 1853.22625,128.512 L1870.63425,128.512 L1870.63425,96.768 C1870.63425,81.7492582 1874.55954,70.3147059 1882.41025,62.464 C1890.26096,54.6132941 1901.52484,50.688 1916.20225,50.688 C1930.87966,50.688 1942.14354,54.6132941 1949.99425,62.464 C1957.84496,70.3147059 1961.77025,81.7492582 1961.77025,96.768 L1961.77025,128.512 L2003.75425,128.512 C2015.01831,128.512 2023.63689,131.327972 2029.61025,136.96 C2035.58361,142.592028 2038.57025,150.869279 2038.57025,161.792 C2038.57025,172.714721 2035.58361,181.077304 2029.61025,186.88 C2023.63689,192.682696 2015.01831,195.584 2003.75425,195.584 L1961.77025,195.584 L1961.77025,275.968 C1961.77025,288.597396 1964.75689,297.898637 1970.73025,303.872 C1976.70361,309.845363 1986.17552,312.832 1999.14625,312.832 C2003.92494,312.832 2008.53289,312.320005 2012.97025,311.296 C2017.40761,310.271995 2021.50356,309.76 2025.25825,309.76 C2030.71961,309.418665 2035.1569,311.039982 2038.57025,314.624 C2041.9836,318.208018 2043.69025,326.314604 2043.69025,338.944 C2043.69025,349.184051 2042.15427,357.802632 2039.08225,364.8 C2036.01023,371.797368 2030.54896,376.831985 2022.69825,379.904 C2017.91956,381.610675 2011.43429,383.061327 2003.24225,384.256 C1995.05021,385.450673 1988.39428,386.048 1983.27425,386.048 Z M2193.96519,386.048 C2165.97571,386.048 2141.57062,380.757386 2120.74919,370.176 C2099.92775,359.594614 2083.71458,344.405432 2072.10919,324.608 C2060.5038,304.810568 2054.70119,281.429468 2054.70119,254.464 C2054.70119,233.983898 2057.94382,215.637414 2064.42919,199.424 C2070.91455,183.210586 2080.30113,169.386724 2092.58919,157.952 C2104.87725,146.517276 2119.55444,137.813363 2136.62119,131.84 C2153.68794,125.866637 2172.80242,122.88 2193.96519,122.88 C2221.95466,122.88 2246.35975,128.170614 2267.18119,138.752 C2288.00262,149.333386 2304.13046,164.437235 2315.56519,184.064 C2326.99991,203.690765 2332.71719,227.157197 2332.71719,254.464 C2332.71719,274.602767 2329.47455,292.863918 2322.98919,309.248 C2316.50382,325.632082 2307.20258,339.541276 2295.08519,350.976 C2282.96779,362.410724 2268.29061,371.114637 2251.05319,377.088 C2233.81577,383.061363 2214.78662,386.048 2193.96519,386.048 Z M2193.96519,318.976 C2203.18123,318.976 2211.37315,316.672023 2218.54119,312.064 C2225.70922,307.455977 2231.25583,300.458714 2235.18119,291.072 C2239.10654,281.685286 2241.06919,269.482742 2241.06919,254.464 C2241.06919,231.594552 2236.6319,215.125384 2227.75719,205.056 C2218.88248,194.986616 2207.61859,189.952 2193.96519,189.952 C2184.74914,189.952 2176.55722,192.170644 2169.38919,196.608 C2162.22115,201.045356 2156.58921,207.957286 2152.49319,217.344 C2148.39717,226.730714 2146.34919,239.103923 2146.34919,254.464 C2146.34919,276.992113 2150.78648,293.375949 2159.66119,303.616 C2168.5359,313.856051 2179.97045,318.976 2193.96519,318.976 Z M2548.03469,159.078114 L2548.03469,60.928 C2548.03469,45.9092582 2551.95998,34.4747059 2559.81069,26.624 C2567.66139,18.7732941 2578.92528,14.848 2593.60269,14.848 C2607.93876,14.848 2619.11731,18.7732941 2627.13869,26.624 C2635.16006,34.4747059 2639.17069,45.9092582 2639.17069,60.928 L2639.17069,338.944 C2639.17069,353.962742 2635.33073,365.397294 2627.65069,373.248 C2619.97065,381.098706 2608.79209,385.024 2594.11469,385.024 C2579.77862,385.024 2568.68539,381.098706 2560.83469,373.248 C2554.45562,366.868928 2550.66823,358.123679 2549.47247,347.012071 C2543.93289,356.882766 2535.68834,365.201363 2524.73869,371.968 C2509.54928,381.354714 2492.22678,386.048 2472.77069,386.048 C2451.26658,386.048 2432.23744,380.757386 2415.68269,370.176 C2399.12794,359.594614 2386.1574,344.405432 2376.77069,324.608 C2367.38397,304.810568 2362.69069,281.429468 2362.69069,254.464 C2362.69069,226.815862 2367.38397,203.264097 2376.77069,183.808 C2386.1574,164.351903 2399.12794,149.333386 2415.68269,138.752 C2432.23744,128.170614 2451.26658,122.88 2472.77069,122.88 C2491.54411,122.88 2508.43995,127.317289 2523.45869,136.192 C2534.16663,142.519421 2542.35859,150.148084 2548.03469,159.078114 L2548.03469,159.078114 Z M2501.95469,318.976 C2511.17073,318.976 2519.36265,316.672023 2526.53069,312.064 C2533.69872,307.455977 2539.24533,300.458714 2543.17069,291.072 C2547.09604,281.685286 2549.05869,269.482742 2549.05869,254.464 C2549.05869,231.594552 2544.6214,215.125384 2535.74669,205.056 C2526.87198,194.986616 2515.60809,189.952 2501.95469,189.952 C2492.73864,189.952 2484.54672,192.170644 2477.37869,196.608 C2470.21065,201.045356 2464.57871,207.957286 2460.48269,217.344 C2456.38667,226.730714 2454.33869,239.103923 2454.33869,254.464 C2454.33869,276.992113 2458.77598,293.375949 2467.65069,303.616 C2476.5254,313.856051 2487.95995,318.976 2501.95469,318.976 Z M2845.21669,272.896 L2825.76069,272.896 C2812.44862,272.896 2801.44073,273.834657 2792.73669,275.712 C2784.03264,277.589343 2777.63271,280.490647 2773.53669,284.416 C2769.44067,288.341353 2767.39269,293.375969 2767.39269,299.52 C2767.39269,307.370706 2770.20866,313.855974 2775.84069,318.976 C2781.47272,324.096026 2789.5793,326.656 2800.16069,326.656 C2808.69406,326.656 2816.28865,324.778685 2822.94469,321.024 C2829.60072,317.269315 2834.97667,312.064033 2839.07269,305.408 C2843.16871,298.751967 2845.21669,290.986711 2845.21669,282.112 L2845.21669,272.896 L2845.21669,272.896 Z M2845.21669,229.888 L2845.21669,222.72 C2845.21669,210.431939 2842.05939,201.728026 2835.74469,196.608 C2829.42999,191.487974 2818.59276,188.928 2803.23269,188.928 C2795.04065,188.928 2785.82474,189.866657 2775.58469,191.744 C2765.34464,193.621343 2753.91008,196.949309 2741.28069,201.728 C2732.06464,205.14135 2724.21405,205.653345 2717.72869,203.264 C2711.24332,200.874655 2706.20871,196.778696 2702.62469,190.976 C2699.04067,185.173304 2697.33402,178.858701 2697.50469,172.032 C2697.67536,165.205299 2699.894,158.720031 2704.16069,152.576 C2708.42738,146.431969 2714.99798,141.65335 2723.87269,138.24 C2740.25677,132.095969 2755.36062,128.00001 2769.18469,125.952 C2783.00876,123.90399 2795.7233,122.88 2807.32869,122.88 C2835.31816,122.88 2858.44326,126.890627 2876.70469,134.912 C2894.96611,142.933373 2908.61931,155.221251 2917.66469,171.776 C2926.71007,188.330749 2931.23269,209.578537 2931.23269,235.52 L2931.23269,338.944 C2931.23269,353.962742 2927.64872,365.397294 2920.48069,373.248 C2913.31265,381.098706 2902.90209,385.024 2889.24869,385.024 C2875.25395,385.024 2864.58739,381.098706 2857.24869,373.248 C2850.85051,366.403435 2847.24147,356.834766 2846.42149,344.541766 C2844.31696,350.607854 2841.35537,356.080576 2837.53669,360.96 C2831.39266,368.810706 2823.3714,374.954644 2813.47269,379.392 C2803.57397,383.829356 2792.31008,386.048 2779.68069,386.048 C2760.22459,386.048 2743.07276,382.464036 2728.22469,375.296 C2713.37661,368.127964 2701.7714,358.314729 2693.40869,345.856 C2685.04598,333.397271 2680.86469,319.146747 2680.86469,303.104 C2680.86469,284.671908 2685.64331,270.165386 2695.20069,259.584 C2704.75807,249.002614 2720.11792,241.408023 2741.28069,236.8 C2762.44346,232.191977 2790.60318,229.888 2825.76069,229.888 L2845.21669,229.888 L2845.21669,229.888 Z M3046.37894,363.013221 L2967.10962,181.76 C2962.67227,171.519949 2961.22162,161.962711 2962.75762,153.088 C2964.29363,144.213289 2968.81625,137.130693 2976.32562,131.84 C2983.835,126.549307 2994.07489,123.904 3007.04562,123.904 C3017.96835,123.904 3026.75759,126.378642 3033.41362,131.328 C3040.06966,136.277358 3046.12826,145.919928 3051.58962,160.256 L3094.32245,271.361336 L3139.65362,159.744 C3145.11499,145.749263 3151.34426,136.277358 3158.34162,131.328 C3165.33899,126.378642 3174.8109,123.904 3186.75762,123.904 C3196.99768,123.904 3205.18959,126.549307 3211.33362,131.84 C3217.47766,137.130693 3221.23228,144.213289 3222.59762,153.088 C3223.96297,161.962711 3222.42698,171.519949 3217.98962,181.76 L3101.76562,442.88 C3095.62159,456.533402 3088.88033,465.663977 3081.54162,470.272 C3074.20292,474.880023 3064.90168,477.184 3053.63762,477.184 C3043.05624,477.184 3034.52299,474.453361 3028.03762,468.992 C3021.55226,463.530639 3017.54163,456.362711 3016.00562,447.488 C3014.46962,438.613289 3015.92027,429.226716 3020.35762,419.328 L3046.37894,363.013221 L3046.37894,363.013221 Z" id="Rodnik.today" fill="#000000"></path>
                <g id="Combined-Shape-2" transform="translate(331.232000, 119.416000)" fill="#67BFFF">
                    <path d="M138,0 C214.215295,0 276,60.6654164 276,135.5 C276,210.334584 214.215295,271 138,271 C61.7847045,271 0,210.334584 0,135.5 C0,60.6654164 61.7847045,0 138,0 Z M138.867925,72.9615385 C104.355338,72.9615385 76.3773585,100.572081 76.3773585,134.63141 C76.3773585,168.69074 104.355338,196.301282 138.867925,196.301282 C173.380511,196.301282 201.358491,168.69074 201.358491,134.63141 C201.358491,100.572081 173.380511,72.9615385 138.867925,72.9615385 Z" id="Combined-Shape"></path>
                </g>
            </g>
        </g>
    </g>
</svg>