<?xml version="1.0" encoding="UTF-8"?>
<svg width="849px" height="129px" viewBox="0 0 849 129" version="1.1" xmlns="http://www.w3.org/2000/svg" xmlns:xlink="http://www.w3.org/1999/xlink">
    <!-- Generator: Sketch 57.1 (83088) - https://sketch.com -->
    <title>rodnik-logo</title>
    <desc>Created with Sketch.</desc>
    <g id="Page-1" stroke="none" stroke-width="1" fill="none" fill-rule="evenodd">
        <g id="rodnik-logo" fill-rule="nonzero">
            <path d="M25.7301136,50.4119318 L34.7784091,50.4119318 C37.7945227,50.4119318 40.37203,50.0349233 42.5110085,49.2808949 C44.649987,48.5268665 46.2965141,47.3189004 47.4506392,45.6569602 C48.6047643,43.9950201 49.1818182,41.8252975 49.1818182,39.1477273 C49.1818182,36.4393804 48.6047643,34.2311875 47.4506392,32.5230824 C46.2965141,30.8149773 44.649987,29.5531528 42.5110085,28.737571 C40.37203,27.9219893 37.7945227,27.5142045 34.7784091,27.5142045 L25.7301136,27.5142045 L25.7301136,50.4119318 L25.7301136,50.4119318 Z M25.7301136,70.3551136 L25.7301136,101.5625 L0.0625,101.5625 L0.0625,7.01704545 L40.8721591,7.01704545 C47.8892396,7.01704545 54.029093,8.29425806 59.2919034,10.8487216 C64.5547138,13.4031851 68.6479494,17.0809419 71.571733,21.8821023 C74.4955165,26.6832626 75.9573864,32.4384134 75.9573864,39.1477273 C75.9573864,45.9185945 74.4570463,51.6275809 71.456321,56.274858 C68.4555958,60.922135 64.2546435,64.4306226 58.8533381,66.8004261 C53.4520327,69.1702297 47.1506042,70.3551136 39.9488636,70.3551136 L25.7301136,70.3551136 L25.7301136,70.3551136 Z M55.4602273,58.1676136 L79.0965909,101.5625 L51.2130682,101.5625 L28.1306818,58.1676136 L55.4602273,58.1676136 Z M192.661932,102.485795 C187.614558,102.485795 182.975045,101.162419 178.743253,98.515625 C174.511461,95.8688315 171.126078,91.8525364 168.587003,86.4666193 C166.047928,81.0807022 164.778409,74.2945485 164.778409,66.1079545 C164.778409,57.5520406 166.10948,50.5966177 168.771662,45.2414773 C171.433844,39.8863369 174.880779,35.9623704 179.112571,33.4694602 C183.344363,30.97655 187.799219,29.7301136 192.477273,29.7301136 C195.985813,29.7301136 199.063434,30.3379437 201.710227,31.5536222 C204.357021,32.7693006 206.572908,34.3850515 208.357955,36.4009233 C210.143001,38.4167951 211.497154,40.624988 212.420455,43.0255682 L212.789773,43.0255682 L212.789773,7.01704545 L238.272727,7.01704545 L238.272727,101.5625 L212.974432,101.5625 L212.974432,89.9289773 L212.420455,89.9289773 C211.435601,92.3295575 210.02759,94.4761979 208.196378,96.3689631 C206.365166,98.2617282 204.149279,99.7543743 201.548651,100.846946 C198.948022,101.939518 195.985812,102.485795 192.661932,102.485795 Z M202.079545,82.9119318 C204.418572,82.9119318 206.42672,82.2271612 208.104048,80.8575994 C209.781377,79.4880377 211.073977,77.5491366 211.981889,75.0408381 C212.889801,72.5325395 213.34375,69.5549415 213.34375,66.1079545 C213.34375,62.5994143 212.889801,59.59104 211.981889,57.0827415 C211.073977,54.574443 209.781377,52.65093 208.104048,51.3121449 C206.42672,49.9733598 204.418572,49.3039773 202.079545,49.3039773 C199.740519,49.3039773 197.747759,49.9733598 196.101207,51.3121449 C194.454656,52.65093 193.192831,54.574443 192.315696,57.0827415 C191.438561,59.59104 191,62.5994143 191,66.1079545 C191,69.6164948 191.438561,72.6248691 192.315696,75.1331676 C193.192831,77.6414661 194.454656,79.5649791 196.101207,80.9037642 C197.747759,82.2425493 199.740519,82.9119318 202.079545,82.9119318 Z M276.3125,61.6761364 L276.3125,101.5625 L250.829545,101.5625 L250.829545,30.6534091 L275.019886,30.6534091 L275.019886,44.1335227 L275.758523,44.1335227 C277.297356,39.640129 280.013356,36.1162533 283.906605,33.5617898 C287.799854,31.0073262 292.347038,29.7301136 297.548295,29.7301136 C302.564893,29.7301136 306.92742,30.8765274 310.636009,33.1693892 C314.344597,35.462251 317.222173,38.6091183 319.268821,42.6100852 C321.31547,46.6110522 322.32339,51.181319 322.294579,56.3210227 L322.294579,101.5625 L296.809659,101.5625 L296.809659,61.6761364 C296.840436,58.1675961 295.95562,55.4131255 294.155185,53.412642 C292.35475,51.4121586 289.854183,50.4119318 286.653409,50.4119318 C284.560596,50.4119318 282.737105,50.8658809 281.182884,51.7737926 C279.628662,52.6817044 278.436084,53.9743051 277.605114,55.6516335 C276.774144,57.328962 276.343277,59.3371095 276.3125,61.6761364 Z M334.849432,101.5625 L334.849432,30.6534091 L360.332386,30.6534091 L360.332386,101.5625 L334.849432,101.5625 Z M334.849432,101.5625 L334.849432,30.6534091 L360.332386,30.6534091 L360.332386,101.5625 L334.849432,101.5625 Z M347.637074,23.2670455 C344.15931,23.2670455 341.189406,22.1283258 338.727273,19.8508523 C336.265139,17.5733788 335.034091,14.8342963 335.034091,11.6335227 C335.034091,8.43274915 336.265139,5.69366669 338.727273,3.41619318 C341.189406,1.13871967 344.143922,0 347.590909,0 C351.068673,0 354.030883,1.13871967 356.477628,3.41619318 C358.924373,5.69366669 360.147727,8.43274915 360.147727,11.6335227 C360.147727,14.8342963 358.924373,17.5733788 356.477628,19.8508523 C354.030883,22.1283258 351.084061,23.2670455 347.637074,23.2670455 Z M396.15625,84.7585227 L396.340909,54.4744318 L399.664773,54.4744318 L416.838068,30.6534091 L445.460227,30.6534091 L416.653409,67.7698864 L409.451705,67.7698864 L396.15625,84.7585227 Z M373.258523,101.5625 L373.258523,7.01704545 L398.741477,7.01704545 L398.741477,101.5625 L373.258523,101.5625 Z M417.022727,101.5625 L400.772727,73.4943182 L417.392045,55.3977273 L446.198864,101.5625 L417.022727,101.5625 Z M465.957386,103.039773 C462.387293,103.039773 459.332754,101.785642 456.793679,99.2773438 C454.254604,96.7690452 453.000473,93.7145066 453.03125,90.1136364 C453.000473,86.6050961 454.254604,83.6044159 456.793679,81.1115057 C459.332754,78.6185955 462.387293,77.3721591 465.957386,77.3721591 C469.34282,77.3721591 472.335806,78.6185955 474.936435,81.1115057 C477.537063,83.6044159 478.852746,86.6050961 478.883523,90.1136364 C478.852746,92.5142165 478.229528,94.6916332 477.013849,96.6459517 C475.798171,98.6002702 474.22089,100.154469 472.28196,101.308594 C470.34303,102.462719 468.23486,103.039773 465.957386,103.039773 Z" id="Rodnik." fill="#000000"></path>
            <path d="M527.71875,30.636364 L527.71875,49.102273 L481,49.102273 L481,30.636364 L527.71875,30.636364 Z M490.048295,13.647728 L515.53125,13.647728 L515.53125,78.740057 C515.53125,79.724911 515.700519,80.548174 516.039062,81.209873 C516.377606,81.871571 516.900801,82.36399 517.608665,82.687145 C518.316528,83.0103 519.224426,83.171875 520.332386,83.171875 C521.101803,83.171875 522.002007,83.079547 523.033026,82.894887 C524.064044,82.710227 524.825755,82.556346 525.318182,82.433239 L529.011364,100.345171 C527.872627,100.683714 526.249182,101.099193 524.14098,101.59162 C522.032778,102.084046 519.532211,102.407197 516.639204,102.56108 C510.791637,102.868847 505.882832,102.261017 501.912642,100.737571 C497.942452,99.214126 494.95716,96.805888 492.956676,93.512785 C490.956193,90.219681 489.986742,86.095669 490.048295,81.140625 L490.048295,13.647728 Z M571.482955,102.838069 C563.788787,102.838069 557.202679,101.306952 551.724432,98.244674 C546.246185,95.182395 542.045232,90.904502 539.121449,85.410867 C536.197665,79.917232 534.735795,73.538863 534.735795,66.275569 C534.735795,59.012275 536.197665,52.633906 539.121449,47.14027 C542.045232,41.646635 546.246185,37.368742 551.724432,34.306464 C557.202679,31.244185 563.788787,29.713069 571.482955,29.713069 C579.177122,29.713069 585.76323,31.244185 591.241477,34.306464 C596.719724,37.368742 600.920677,41.646635 603.84446,47.14027 C606.768244,52.633906 608.230114,59.012275 608.230114,66.275569 C608.230114,73.538863 606.768244,79.917232 603.84446,85.410867 C600.920677,90.904502 596.719724,95.182395 591.241477,98.244674 C585.76323,101.306952 579.177122,102.838069 571.482955,102.838069 Z M571.667614,84.002841 C573.82198,84.002841 575.683941,83.2796 577.253551,81.833097 C578.823161,80.386594 580.038821,78.324588 580.900568,75.647018 C581.762315,72.969447 582.193182,69.78411 582.193182,66.09091 C582.193182,62.366933 581.762315,59.173901 580.900568,56.511719 C580.038821,53.849537 578.823161,51.795225 577.253551,50.348722 C575.683941,48.902219 573.82198,48.178978 571.667614,48.178978 C569.39014,48.178978 567.435851,48.902219 565.804688,50.348722 C564.173524,51.795225 562.927088,53.849537 562.065341,56.511719 C561.203594,59.173901 560.772727,62.366933 560.772727,66.09091 C560.772727,69.78411 561.203594,72.969447 562.065341,75.647018 C562.927088,78.324588 564.173524,80.386594 565.804688,81.833097 C567.435851,83.2796 569.39014,84.002841 571.667614,84.002841 Z M644.238636,102.46875 C639.191263,102.46875 634.551749,101.145374 630.319957,98.49858 C626.088165,95.851786 622.702783,91.835491 620.163707,86.449574 C617.624632,81.063657 616.355114,74.277504 616.355114,66.09091 C616.355114,57.534996 617.686185,50.579573 620.348366,45.224432 C623.010548,39.869292 626.457484,35.945325 630.689276,33.452415 C634.921068,30.959505 639.375924,29.713069 644.053977,29.713069 C647.562518,29.713069 650.640138,30.320899 653.286932,31.536577 C655.933725,32.752256 658.149612,34.368006 659.934659,36.383878 C661.719706,38.39975 663.073859,40.607943 663.997159,43.008523 L664.366477,43.008523 L664.366477,7 L689.849432,7 L689.849432,101.545455 L664.551136,101.545455 L664.551136,89.911932 L663.997159,89.911932 C663.012306,92.312512 661.604294,94.459153 659.773082,96.351918 C657.941871,98.244683 655.725984,99.737329 653.125355,100.829901 C650.524727,101.922473 647.562517,102.46875 644.238636,102.46875 Z M653.65625,82.894887 C655.995277,82.894887 658.003424,82.210116 659.680753,80.840554 C661.358081,79.470993 662.650682,77.532092 663.558594,75.023793 C664.466505,72.515495 664.920455,69.537896 664.920455,66.09091 C664.920455,62.582369 664.466505,59.573995 663.558594,57.065696 C662.650682,54.557398 661.358081,52.633885 659.680753,51.2951 C658.003424,49.956315 655.995277,49.286932 653.65625,49.286932 C651.317223,49.286932 649.324464,49.956315 647.677912,51.2951 C646.03136,52.633885 644.769536,54.557398 643.892401,57.065696 C643.015266,59.573995 642.576705,62.582369 642.576705,66.09091 C642.576705,69.59945 643.015266,72.607824 643.892401,75.116123 C644.769536,77.624421 646.03136,79.547934 647.677912,80.886719 C649.324464,82.225504 651.317223,82.894887 653.65625,82.894887 Z M722.164773,102.65341 C717.640602,102.65341 713.647389,101.907087 710.185014,100.414418 C706.722639,98.92175 704.006639,96.652004 702.036932,93.605114 C700.067225,90.558224 699.082386,86.680422 699.082386,81.971591 C699.082386,78.093731 699.744075,74.777595 701.067472,72.023083 C702.390868,69.268571 704.237441,67.014214 706.607244,65.259944 C708.977048,63.505674 711.739212,62.166908 714.893821,61.243608 C718.04843,60.320308 721.456895,59.720172 725.119318,59.443182 C729.089508,59.135416 732.28254,58.758407 734.698509,58.312145 C737.114477,57.865884 738.861027,57.234971 739.93821,56.41939 C741.015394,55.603808 741.553977,54.518947 741.553977,53.164773 L741.553977,52.980114 C741.553977,51.133514 740.846125,49.717808 739.430398,48.732955 C738.014671,47.748102 736.198875,47.255682 733.982955,47.255682 C731.551598,47.255682 729.574226,47.786572 728.050781,48.848367 C726.527336,49.910162 725.611744,51.533607 725.303977,53.71875 L701.852273,53.71875 C702.160039,49.410017 703.537275,45.432192 705.98402,41.785157 C708.430765,38.138121 712.008499,35.214382 716.71733,33.01385 C721.42616,30.813318 727.304416,29.713069 734.352273,29.713069 C739.430423,29.713069 743.985302,30.305511 748.017045,31.490412 C752.048789,32.675314 755.480336,34.321841 758.31179,36.430043 C761.143243,38.538245 763.305272,41.000341 764.79794,43.816407 C766.290609,46.632472 767.036932,49.687011 767.036932,52.980114 L767.036932,101.545455 L743.215909,101.545455 L743.215909,91.573864 L742.661932,91.573864 C741.246205,94.220658 739.530431,96.359604 737.51456,97.990768 C735.498688,99.621931 733.20586,100.806815 730.636009,101.545455 C728.066157,102.284095 725.24244,102.65341 722.164773,102.65341 Z M730.474432,86.588069 C732.413362,86.588069 734.236852,86.187978 735.944957,85.387785 C737.653063,84.587591 739.045686,83.433483 740.122869,81.925427 C741.200053,80.41737 741.738636,78.586185 741.738636,76.431819 L741.738636,70.522728 C741.06155,70.799718 740.346003,71.061316 739.591974,71.307529 C738.837946,71.553742 738.037765,71.784564 737.191406,72 C736.345048,72.215437 735.452538,72.415482 734.513849,72.600143 C733.575161,72.784803 732.598016,72.954072 731.582386,73.107955 C729.61268,73.415722 728.004623,73.915835 726.758168,74.60831 C725.511713,75.300785 724.588426,76.147131 723.988281,77.147373 C723.388136,78.147614 723.088068,79.263252 723.088068,80.494319 C723.088068,82.464025 723.780533,83.97206 725.165483,85.018466 C726.550433,86.064873 728.320065,86.588069 730.474432,86.588069 Z M792.150568,128.044035 C789.226785,128.044035 786.441538,127.820907 783.794744,127.374645 C781.147951,126.928384 778.824347,126.320554 776.823864,125.551137 L782.363636,107.454546 C785.502857,108.562506 788.180387,109.047231 790.396307,108.908736 C792.612227,108.770241 794.243366,107.793097 795.289773,105.977273 L795.84375,104.68466 L770.914773,30.636364 L797.505682,30.636364 L808.954545,79.755682 L809.693182,79.755682 L821.326705,30.636364 L848.102273,30.636364 L822.25,107.454546 C820.95738,111.332406 819.087725,114.825506 816.64098,117.933949 C814.194235,121.042393 810.985815,123.504489 807.015625,125.320313 C803.045435,127.136136 798.090465,128.044035 792.150568,128.044035 Z" id="today" fill="#000000"></path>
            <g id="Combined-Shape-2" transform="translate(83.159091, 29.730114)" fill="#67BFFF">
                <path d="M36.5,0 C56.6583934,0 73,16.3416066 73,36.5 C73,56.6583934 56.6583934,73 36.5,73 C16.3416066,73 0,56.6583934 0,36.5 C0,16.3416066 16.3416066,0 36.5,0 Z M36.5,20 C27.3873016,20 20,27.3873016 20,36.5 C20,45.6126984 27.3873016,53 36.5,53 C45.6126984,53 53,45.6126984 53,36.5 C53,27.3873016 45.6126984,20 36.5,20 Z" id="Combined-Shape"></path>
            </g>
        </g>
    </g>
</svg>