<?xml version="1.0" encoding="UTF-8"?>
<svg width="846px" height="129px" viewBox="0 0 846 129" version="1.1" xmlns="http://www.w3.org/2000/svg" xmlns:xlink="http://www.w3.org/1999/xlink">
    <!-- Generator: Sketch 57.1 (83088) - https://sketch.com -->
    <title>Group</title>
    <desc>Created with Sketch.</desc>
    <g id="Page-1" stroke="none" stroke-width="1" fill="none" fill-rule="evenodd">
        <g id="Artboard" transform="translate(-95.000000, -85.000000)" fill-rule="nonzero">
            <g id="Group" transform="translate(95.000000, 85.000000)">
                <path d="M25.7301136,50.4119318 L34.7784091,50.4119318 C37.7945227,50.4119318 40.37203,50.0349233 42.5110085,49.2808949 C44.649987,48.5268665 46.2965141,47.3189004 47.4506392,45.6569602 C48.6047643,43.9950201 49.1818182,41.8252975 49.1818182,39.1477273 C49.1818182,36.4393804 48.6047643,34.2311875 47.4506392,32.5230824 C46.2965141,30.8149773 44.649987,29.5531528 42.5110085,28.737571 C40.37203,27.9219893 37.7945227,27.5142045 34.7784091,27.5142045 L25.7301136,27.5142045 L25.7301136,50.4119318 L25.7301136,50.4119318 Z M25.7301136,70.3551136 L25.7301136,101.5625 L0.0625,101.5625 L0.0625,7.01704545 L40.8721591,7.01704545 C47.8892396,7.01704545 54.029093,8.29425806 59.2919034,10.8487216 C64.5547138,13.4031851 68.6479494,17.0809419 71.571733,21.8821023 C74.4955165,26.6832626 75.9573864,32.4384134 75.9573864,39.1477273 C75.9573864,45.9185945 74.4570463,51.6275809 71.456321,56.274858 C68.4555958,60.922135 64.2546435,64.4306226 58.8533381,66.8004261 C53.4520327,69.1702297 47.1506042,70.3551136 39.9488636,70.3551136 L25.7301136,70.3551136 L25.7301136,70.3551136 Z M55.4602273,58.1676136 L79.0965909,101.5625 L51.2130682,101.5625 L28.1306818,58.1676136 L55.4602273,58.1676136 Z M192.661932,102.485795 C187.614558,102.485795 182.975045,101.162419 178.743253,98.515625 C174.511461,95.8688315 171.126078,91.8525364 168.587003,86.4666193 C166.047928,81.0807022 164.778409,74.2945485 164.778409,66.1079545 C164.778409,57.5520406 166.10948,50.5966177 168.771662,45.2414773 C171.433844,39.8863369 174.880779,35.9623704 179.112571,33.4694602 C183.344363,30.97655 187.799219,29.7301136 192.477273,29.7301136 C195.985813,29.7301136 199.063434,30.3379437 201.710227,31.5536222 C204.357021,32.7693006 206.572908,34.3850515 208.357955,36.4009233 C210.143001,38.4167951 211.497154,40.624988 212.420455,43.0255682 L212.789773,43.0255682 L212.789773,7.01704545 L238.272727,7.01704545 L238.272727,101.5625 L212.974432,101.5625 L212.974432,89.9289773 L212.420455,89.9289773 C211.435601,92.3295575 210.02759,94.4761979 208.196378,96.3689631 C206.365166,98.2617282 204.149279,99.7543743 201.548651,100.846946 C198.948022,101.939518 195.985812,102.485795 192.661932,102.485795 Z M202.079545,82.9119318 C204.418572,82.9119318 206.42672,82.2271612 208.104048,80.8575994 C209.781377,79.4880377 211.073977,77.5491366 211.981889,75.0408381 C212.889801,72.5325395 213.34375,69.5549415 213.34375,66.1079545 C213.34375,62.5994143 212.889801,59.59104 211.981889,57.0827415 C211.073977,54.574443 209.781377,52.65093 208.104048,51.3121449 C206.42672,49.9733598 204.418572,49.3039773 202.079545,49.3039773 C199.740519,49.3039773 197.747759,49.9733598 196.101207,51.3121449 C194.454656,52.65093 193.192831,54.574443 192.315696,57.0827415 C191.438561,59.59104 191,62.5994143 191,66.1079545 C191,69.6164948 191.438561,72.6248691 192.315696,75.1331676 C193.192831,77.6414661 194.454656,79.5649791 196.101207,80.9037642 C197.747759,82.2425493 199.740519,82.9119318 202.079545,82.9119318 Z M276.3125,61.6761364 L276.3125,101.5625 L250.829545,101.5625 L250.829545,30.6534091 L275.019886,30.6534091 L275.019886,44.1335227 L275.758523,44.1335227 C277.297356,39.640129 280.013356,36.1162533 283.906605,33.5617898 C287.799854,31.0073262 292.347038,29.7301136 297.548295,29.7301136 C302.564893,29.7301136 306.92742,30.8765274 310.636009,33.1693892 C314.344597,35.462251 317.222173,38.6091183 319.268821,42.6100852 C321.31547,46.6110522 322.32339,51.181319 322.293952,56.3210227 L322.293952,101.5625 L296.809659,101.5625 L296.809659,61.6761364 C296.840436,58.1675961 295.95562,55.4131255 294.155185,53.412642 C292.35475,51.4121586 289.854183,50.4119318 286.653409,50.4119318 C284.560596,50.4119318 282.737105,50.8658809 281.182884,51.7737926 C279.628662,52.6817044 278.436084,53.9743051 277.605114,55.6516335 C276.774144,57.328962 276.343277,59.3371095 276.3125,61.6761364 Z M334.849432,101.5625 L334.849432,30.6534091 L360.332386,30.6534091 L360.332386,101.5625 L334.849432,101.5625 Z M334.849432,101.5625 L334.849432,30.6534091 L360.332386,30.6534091 L360.332386,101.5625 L334.849432,101.5625 Z M347.637074,23.2670455 C344.15931,23.2670455 341.189406,22.1283258 338.727273,19.8508523 C336.265139,17.5733788 335.034091,14.8342963 335.034091,11.6335227 C335.034091,8.43274915 336.265139,5.69366669 338.727273,3.41619318 C341.189406,1.13871967 344.143922,0 347.590909,0 C351.068673,0 354.030883,1.13871967 356.477628,3.41619318 C358.924373,5.69366669 360.147727,8.43274915 360.147727,11.6335227 C360.147727,14.8342963 358.924373,17.5733788 356.477628,19.8508523 C354.030883,22.1283258 351.084061,23.2670455 347.637074,23.2670455 Z M396.15625,84.7585227 L396.340909,54.4744318 L399.664773,54.4744318 L416.838068,30.6534091 L445.460227,30.6534091 L416.653409,67.7698864 L409.451705,67.7698864 L396.15625,84.7585227 Z M373.258523,101.5625 L373.258523,7.01704545 L398.741477,7.01704545 L398.741477,101.5625 L373.258523,101.5625 Z M417.022727,101.5625 L400.772727,73.4943182 L417.392045,55.3977273 L446.198864,101.5625 L417.022727,101.5625 Z M465.957386,103.039773 C462.387293,103.039773 459.332754,101.785642 456.793679,99.2773438 C454.254604,96.7690452 453.000473,93.7145066 453.03125,90.1136364 C453.000473,86.6050961 454.254604,83.6044159 456.793679,81.1115057 C459.332754,78.6185955 462.387293,77.3721591 465.957386,77.3721591 C469.34282,77.3721591 472.335806,78.6185955 474.936435,81.1115057 C477.537063,83.6044159 478.852746,86.6050961 478.883523,90.1136364 C478.852746,92.5142165 478.229528,94.6916332 477.013849,96.6459517 C475.798171,98.6002702 474.22089,100.154469 472.28196,101.308594 C470.34303,102.462719 468.23486,103.039773 465.957386,103.039773 Z" id="Rodnik." fill="#FFFFFF"></path>
                <path d="M524.71875,30.6363636 L524.71875,49.1022727 L478,49.1022727 L478,30.6363636 L524.71875,30.6363636 Z M487.048295,13.6477273 L512.53125,13.6477273 L512.53125,78.7400568 C512.53125,79.7249102 512.700519,80.5481738 513.039062,81.2098722 C513.377606,81.8715705 513.900801,82.3639899 514.608665,82.6871449 C515.316528,83.0102999 516.224426,83.171875 517.332386,83.171875 C518.101803,83.171875 519.002007,83.0795464 520.033026,82.8948864 C521.064044,82.7102263 521.825755,82.5563453 522.318182,82.4332386 L526.011364,100.34517 C524.872627,100.683714 523.249182,101.099193 521.14098,101.591619 C519.032778,102.084046 516.532211,102.407196 513.639205,102.56108 C507.791637,102.868846 502.882832,102.261016 498.912642,100.737571 C494.942452,99.2141259 491.95716,96.8058877 489.956676,93.5127841 C487.956193,90.2196805 486.986742,86.0956687 487.048295,81.140625 L487.048295,13.6477273 Z M568.482955,102.838068 C560.788787,102.838068 554.202679,101.306952 548.724432,98.2446733 C543.246185,95.1823947 539.045232,90.9045019 536.121449,85.4108665 C533.197665,79.9172311 531.735795,73.5388621 531.735795,66.2755682 C531.735795,59.0122743 533.197665,52.6339053 536.121449,47.1402699 C539.045232,41.6466345 543.246185,37.3687416 548.724432,34.3064631 C554.202679,31.2441845 560.788787,29.7130682 568.482955,29.7130682 C576.177122,29.7130682 582.76323,31.2441845 588.241477,34.3064631 C593.719724,37.3687416 597.920677,41.6466345 600.84446,47.1402699 C603.768244,52.6339053 605.230114,59.0122743 605.230114,66.2755682 C605.230114,73.5388621 603.768244,79.9172311 600.84446,85.4108665 C597.920677,90.9045019 593.719724,95.1823947 588.241477,98.2446733 C582.76323,101.306952 576.177122,102.838068 568.482955,102.838068 Z M568.667614,84.0028409 C570.82198,84.0028409 572.683941,83.2796 574.253551,81.8330966 C575.823161,80.3865931 577.038821,78.3245873 577.900568,75.647017 C578.762315,72.9694468 579.193182,69.7841094 579.193182,66.0909091 C579.193182,62.3669321 578.762315,59.1739006 577.900568,56.5117188 C577.038821,53.8495369 575.823161,51.795225 574.253551,50.3487216 C572.683941,48.9022181 570.82198,48.1789773 568.667614,48.1789773 C566.39014,48.1789773 564.435851,48.9022181 562.804688,50.3487216 C561.173524,51.795225 559.927088,53.8495369 559.065341,56.5117188 C558.203594,59.1739006 557.772727,62.3669321 557.772727,66.0909091 C557.772727,69.7841094 558.203594,72.9694468 559.065341,75.647017 C559.927088,78.3245873 561.173524,80.3865931 562.804688,81.8330966 C564.435851,83.2796 566.39014,84.0028409 568.667614,84.0028409 Z M641.238636,102.46875 C636.191263,102.46875 631.551749,101.145373 627.319957,98.4985795 C623.088165,95.851786 619.702783,91.8354909 617.163707,86.4495739 C614.624632,81.0636568 613.355114,74.2775031 613.355114,66.0909091 C613.355114,57.5349951 614.686185,50.5795722 617.348366,45.2244318 C620.010548,39.8692914 623.457484,35.945325 627.689276,33.4524148 C631.921068,30.9595046 636.375924,29.7130682 641.053977,29.7130682 C644.562518,29.7130682 647.640138,30.3208983 650.286932,31.5365767 C652.933725,32.7522551 655.149612,34.368006 656.934659,36.3838778 C658.719706,38.3997497 660.073859,40.6079425 660.997159,43.0085227 L661.366477,43.0085227 L661.366477,7 L686.849432,7 L686.849432,101.545455 L661.551136,101.545455 L661.551136,89.9119318 L660.997159,89.9119318 C660.012306,92.312512 658.604294,94.4591525 656.773082,96.3519176 C654.941871,98.2446828 652.725984,99.7373288 650.125355,100.829901 C647.524727,101.922472 644.562517,102.46875 641.238636,102.46875 Z M650.65625,82.8948864 C652.995277,82.8948864 655.003424,82.2101157 656.680753,80.840554 C658.358081,79.4709922 659.650682,77.5320911 660.558594,75.0237926 C661.466505,72.5154941 661.920455,69.537896 661.920455,66.0909091 C661.920455,62.5823688 661.466505,59.5739945 660.558594,57.065696 C659.650682,54.5573975 658.358081,52.6338845 656.680753,51.2950994 C655.003424,49.9563143 652.995277,49.2869318 650.65625,49.2869318 C648.317223,49.2869318 646.324464,49.9563143 644.677912,51.2950994 C643.03136,52.6338845 641.769536,54.5573975 640.892401,57.065696 C640.015266,59.5739945 639.576705,62.5823688 639.576705,66.0909091 C639.576705,69.5994494 640.015266,72.6078236 640.892401,75.1161222 C641.769536,77.6244207 643.03136,79.5479336 644.677912,80.8867188 C646.324464,82.2255039 648.317223,82.8948864 650.65625,82.8948864 Z M719.164773,102.653409 C714.640602,102.653409 710.647389,101.907086 707.185014,100.414418 C703.722639,98.9217492 701.006639,96.6520039 699.036932,93.6051136 C697.067225,90.5582234 696.082386,86.6804213 696.082386,81.9715909 C696.082386,78.0937306 696.744075,74.7775943 698.067472,72.0230824 C699.390868,69.2685705 701.237441,67.0142133 703.607244,65.2599432 C705.977048,63.505673 708.739212,62.166908 711.893821,61.243608 C715.04843,60.3203079 718.456895,59.7201718 722.119318,59.4431818 C726.089508,59.1354151 729.28254,58.7584066 731.698509,58.3121449 C734.114477,57.8658832 735.861027,57.2349709 736.93821,56.4193892 C738.015394,55.6038075 738.553977,54.5189462 738.553977,53.1647727 L738.553977,52.9801136 C738.553977,51.1335135 737.846125,49.717808 736.430398,48.7329545 C735.014671,47.7481011 733.198875,47.2556818 730.982955,47.2556818 C728.551598,47.2556818 726.574226,47.7865714 725.050781,48.8483665 C723.527336,49.9101616 722.611744,51.5336065 722.303977,53.71875 L698.852273,53.71875 C699.160039,49.4100163 700.537275,45.4321915 702.98402,41.7851563 C705.430765,38.138121 709.008499,35.2143813 713.71733,33.0138494 C718.42616,30.8133176 724.304416,29.7130682 731.352273,29.7130682 C736.430423,29.7130682 740.985302,30.3055102 745.017045,31.4904119 C749.048789,32.6753137 752.480336,34.3218408 755.31179,36.4300426 C758.143243,38.5382444 760.305272,41.000341 761.79794,43.8164063 C763.290609,46.6324715 764.036932,49.68701 764.036932,52.9801136 L764.036932,101.545455 L740.215909,101.545455 L740.215909,91.5738636 L739.661932,91.5738636 C738.246205,94.2206572 736.530431,96.3596036 734.51456,97.990767 C732.498688,99.6219305 730.20586,100.806814 727.636009,101.545455 C725.066157,102.284095 722.24244,102.653409 719.164773,102.653409 Z M727.474432,86.5880682 C729.413362,86.5880682 731.236852,86.1879775 732.944957,85.3877841 C734.653063,84.5875907 736.045686,83.4334829 737.122869,81.9254261 C738.200053,80.4173694 738.738636,78.586185 738.738636,76.4318182 L738.738636,70.5227273 C738.06155,70.7997173 737.346003,71.0613151 736.591974,71.3075284 C735.837946,71.5537418 735.037765,71.7845633 734.191406,72 C733.345048,72.2154367 732.452538,72.415482 731.513849,72.600142 C730.575161,72.7848021 729.598016,72.9540712 728.582386,73.1079545 C726.61268,73.4157212 725.004623,73.9158346 723.758168,74.6083097 C722.511713,75.3007847 721.588426,76.1471304 720.988281,77.1473722 C720.388136,78.1476139 720.088068,79.2632514 720.088068,80.4943182 C720.088068,82.464025 720.780533,83.9720592 722.165483,85.0184659 C723.550433,86.0648727 725.320065,86.5880682 727.474432,86.5880682 Z M789.150568,128.044034 C786.226785,128.044034 783.441538,127.820907 780.794744,127.374645 C778.147951,126.928383 775.824347,126.320553 773.823864,125.551136 L779.363636,107.454545 C782.502857,108.562506 785.180387,109.047231 787.396307,108.908736 C789.612227,108.770241 791.243366,107.793096 792.289773,105.977273 L792.84375,104.684659 L767.914773,30.6363636 L794.505682,30.6363636 L805.954545,79.7556818 L806.693182,79.7556818 L818.326705,30.6363636 L845.102273,30.6363636 L819.25,107.454545 C817.95738,111.332406 816.087725,114.825505 813.64098,117.933949 C811.194235,121.042392 807.985815,123.504489 804.015625,125.320313 C800.045435,127.136136 795.090465,128.044034 789.150568,128.044034 Z" id="today" fill="#FFFFFF"></path>
                <g id="Combined-Shape-2" transform="translate(83.159091, 29.730114)" fill="#67BFFF">
                    <path d="M36.5,0 C56.6583934,0 73,16.3416066 73,36.5 C73,56.6583934 56.6583934,73 36.5,73 C16.3416066,73 0,56.6583934 0,36.5 C0,16.3416066 16.3416066,0 36.5,0 Z M36.5,20 C27.3873016,20 20,27.3873016 20,36.5 C20,45.6126984 27.3873016,53 36.5,53 C45.6126984,53 53,45.6126984 53,36.5 C53,27.3873016 45.6126984,20 36.5,20 Z" id="Combined-Shape"></path>
                </g>
            </g>
        </g>
    </g>
</svg>