<?xml version="1.0" standalone="no"?>
<!DOCTYPE svg PUBLIC "-//W3C//DTD SVG 20010904//EN"
 "http://www.w3.org/TR/2001/REC-SVG-20010904/DTD/svg10.dtd">
<svg version="1.0" xmlns="http://www.w3.org/2000/svg"
 width="512.000000pt" height="512.000000pt" viewBox="0 0 512.000000 512.000000"
 preserveAspectRatio="xMidYMid meet">
<metadata>
Created by potrace 1.14, written by Peter Selinger 2001-2017
</metadata>
<g transform="translate(0.000000,512.000000) scale(0.100000,-0.100000)"
fill="#000000" stroke="none">
<path d="M2369 5066 c-2 -2 -38 -6 -79 -10 -41 -3 -85 -8 -97 -10 -11 -3 -43
-8 -70 -11 -26 -4 -77 -14 -113 -22 -36 -8 -72 -16 -80 -18 -72 -14 -310 -92
-324 -106 -6 -5 -16 -9 -24 -9 -25 0 -236 -105 -355 -178 -393 -239 -721 -589
-929 -992 -48 -93 -64 -129 -114 -245 -39 -92 -109 -337 -128 -450 -3 -16 -8
-41 -11 -55 -19 -90 -30 -246 -30 -410 1 -146 12 -346 20 -360 2 -3 6 -26 10
-50 41 -295 168 -638 340 -916 398 -643 1033 -1062 1790 -1180 124 -19 497
-28 605 -14 36 5 88 11 115 15 400 53 843 237 1160 482 132 103 147 115 265
233 251 249 433 526 565 860 54 136 127 393 141 496 3 27 8 57 10 68 27 141
26 572 -1 731 -6 33 -22 117 -30 155 -2 14 -8 39 -11 55 -7 35 -41 159 -54
195 -56 163 -83 229 -150 360 -79 156 -133 243 -235 379 -145 192 -290 339
-475 483 -162 125 -379 253 -560 329 -84 35 -319 114 -365 123 -16 3 -61 12
-100 21 -69 16 -98 20 -185 31 -25 3 -56 7 -70 10 -30 6 -425 15 -431 10z
m320 -1390 c377 -52 712 -297 876 -641 34 -72 72 -174 80 -215 0 -3 7 -36 15
-75 15 -77 19 -277 7 -368 -20 -148 -100 -347 -194 -484 -96 -140 -272 -292
-428 -370 -301 -152 -669 -158 -981 -17 -85 38 -218 125 -292 190 -94 84 -209
237 -264 354 -206 436 -123 945 209 1285 190 196 420 310 683 342 25 2 46 6
47 7 5 4 198 -2 242 -8z"/>
</g>
</svg>
